<?xml version="1.0" encoding="utf-8"?>
<!-- Uploaded to: SVG Repo, www.svgrepo.com, Generator: SVG Repo Mixer Tools -->
<svg width="800px" height="800px" viewBox="0 0 1024 1024" class="icon"  version="1.1" xmlns="http://www.w3.org/2000/svg"><path d="M876.6 225.3H147.4c-8.3 0-15 6.7-15 15v514.9c9.7-38.8 29.7-74.5 58.8-103.5 42.2-42.2 98.3-65.4 158-65.4s115.8 23.2 158 65.4c26.5 26.5 45.5 58.5 56 93.4 21.1-32.2 57.4-53.4 98.7-53.4 61.3 0 111.9 47 117.4 106.9h97.4c8.3 0 15-6.7 15-15V240.3c-0.1-8.3-6.8-15-15.1-15zM736.9 437c-35.1 0-63.5-28.4-63.5-63.5s28.4-63.5 63.5-63.5 63.5 28.4 63.5 63.5S772 437 736.9 437z" fill="#FFBC00" /><path d="M876.6 195.3H147.4c-24.8 0-45 20.2-45 45v543.4c0 24.8 20.2 45 45 45h729.2c24.8 0 45-20.2 45-45V240.3c0-24.8-20.2-45-45-45zM161.3 794.7l178.1-178.1c3.2-0.2 6.5-0.2 9.7-0.2 21.3 0 41.8 3.5 60.9 9.8L241.5 794.7h-80.2z m4.7-47.2c19.3-56.7 64.2-101.7 121-121l-121 121z m118 47.2l155.8-155.8c17 9.1 32.6 20.6 46.1 34.2L364.2 794.7H284z m122.7 0l98.7-98.7c11.7 16 20.9 33.8 27.3 53l-45.8 45.8h-80.2z m122.6 0l11.3-11.3c0.5 3.7 0.9 7.5 1.2 11.3h-12.5z m45.8 0c7.1-41.4 43.3-72.9 86.7-72.9s79.5 31.6 86.7 72.9H575.1z m316.5-11c0 8.3-6.7 15-15 15h-97.4c-5.6-59.9-56.1-106.9-117.4-106.9-41.2 0-77.6 21.3-98.7 53.4-10.5-34.9-29.5-66.9-56-93.4-42.2-42.2-98.3-65.4-158-65.4s-115.8 23.2-158 65.4c-29 29-49.1 64.7-58.8 103.5v-515c0-8.3 6.7-15 15-15h729.2c8.3 0 15 6.7 15 15v543.4z" fill="#46287C" /><path d="M349.1 616.3c-3.3 0-6.5 0.1-9.7 0.2L161.3 794.7h80.3l168.5-168.5c-19.2-6.4-39.7-9.9-61-9.9zM529.3 794.7h12.6c-0.3-3.8-0.7-7.6-1.2-11.3l-11.4 11.3zM166 747.5l121-121c-56.8 19.4-101.7 64.3-121 121zM505.4 695.9l-98.7 98.7H487l45.8-45.8c-6.5-19-15.7-36.9-27.4-52.9zM439.7 638.9L284 794.7h80.3l121.6-121.6c-13.6-13.6-29.1-25.1-46.2-34.2zM661.8 721.7c-43.4 0-79.5 31.6-86.7 72.9h173.3c-7.1-41.3-43.3-72.9-86.6-72.9z" fill="#FFBC00" /><path d="M736.9 373.5m-63.5 0a63.5 63.5 0 1 0 127 0 63.5 63.5 0 1 0-127 0Z" fill="#FFFFFF" /></svg>