<?xml version="1.0" encoding="utf-8"?>
<!-- Uploaded to: SVG Repo, www.svgrepo.com, Generator: SVG Repo Mixer Tools -->
<svg width="800px" height="800px" viewBox="0 0 1024 1024" class="icon"  version="1.1" xmlns="http://www.w3.org/2000/svg"><path d="M698 841.2l88.2-88.3v-64.4L633.5 841.2zM747.3 482.6c-16.7 26.1-46 43.5-79.2 43.5-33 0-62-17.1-78.8-42.9-16.8 25.8-45.8 42.8-78.8 42.8-32.6 0-61.3-16.7-78.2-41.9-16.9 25.2-45.6 41.9-78.2 41.9-32.7 0-61.5-16.8-78.3-42.1-9.4 14.2-22.6 25.6-38 33v309.3c0 8.3 6.7 15 15 15h338.3l195.1-195.1V516.9c-15.9-7.6-29.4-19.5-38.9-34.3zM334.2 658.2c-17.8 0-32.2-14.4-32.2-32.2 0-17.8 14.4-32.2 32.2-32.2 17.8 0 32.2 14.4 32.2 32.2-0.1 17.8-14.5 32.2-32.2 32.2z m241 181.9H455.3V697c0-33.1 26.8-60 60-60 33.1 0 60 26.8 60 60v143.1zM771.2 841.2c8.3 0 15-6.7 15-15v-30.8l-45.8 45.8h30.8z" fill="#FFBC00" /><path d="M334.2 626.1m-32.2 0a32.2 32.2 0 1 0 64.4 0 32.2 32.2 0 1 0-64.4 0Z" fill="#FFFFFF" /><path d="M260.7 441.9c-0.3-3.2-0.5-6.5-0.5-9.9s0.2-6.6 0.5-9.9c-0.6-4-1.6-8-3-11.7H152.5c-5.3 0-10.1-0.8-14.3-2.4-3 7.4-4.7 15.5-4.7 24 0 35.3 28.7 64 64 64 31.9 0 58.4-23.5 63.2-54.1zM354.1 496c31.5 0 57.8-23 63-53-0.4-3.6-0.6-7.2-0.6-10.9s0.2-7.3 0.6-10.9c-0.6-3.7-1.6-7.2-2.8-10.6H293.9c-2.4 6.7-3.7 14-3.7 21.6 0 35.1 28.7 63.8 63.9 63.8zM510.5 496c33.7 0 61.4-26.2 63.8-59.3-0.1-1.6-0.1-3.1-0.1-4.7s0-3.1 0.1-4.7c-0.4-5.9-1.7-11.5-3.6-16.9H450.3c-2.4 6.7-3.7 14-3.7 21.6-0.1 35.3 28.6 64 63.9 64zM607.9 410.5c-2.4 6.7-3.7 14-3.7 21.6 0 35.3 28.7 64 64 64s64-28.7 64-64c0-7.6-1.3-14.8-3.7-21.6H607.9zM871.5 410.5H766.3c-2.4 6.7-3.7 14-3.7 21.6 0 35.3 28.7 64 64 64s64-28.7 64-64c0-8.5-1.7-16.6-4.7-24-4.3 1.6-9.1 2.4-14.4 2.4z" fill="#FFBC00" /><path d="M903.7 378.5c-0.8-5.4-3-10.9-6.6-16.2l-121-178.1c-12.2-17.9-37.6-31.4-59.3-31.4H307.2c-21.6 0-47.1 13.5-59.3 31.4l-121 178.1c-3.6 5.3-5.8 10.9-6.6 16.2-10.6 15.2-16.8 33.7-16.8 53.6 0 51.8 42.2 94 94 94 3.5 0 6.9-0.2 10.3-0.6v300.7c0 24.8 20.2 45 45 45h518.5c24.8 0 45-20.2 45-45V525.5c3.4 0.4 6.8 0.6 10.3 0.6 51.8 0 94-42.2 94-94-0.1-19.9-6.3-38.4-16.9-53.6z m-171.6 53.6c0 35.3-28.7 64-64 64s-64-28.7-64-64c0-7.6 1.3-14.8 3.7-21.6h120.4c2.5 6.7 3.9 14 3.9 21.6z m-441.9 0c0-7.6 1.3-14.8 3.7-21.6h120.4c1.2 3.4 2.2 7 2.8 10.6-0.4 3.6-0.6 7.2-0.6 10.9s0.2 7.3 0.6 10.9c-5.2 30.1-31.5 53-63 53-35.2 0.1-63.9-28.6-63.9-63.8z m17-249.3h409.7c11.5 0 28 8.7 34.4 18.2l121 178.1c0.3 0.5 0.6 0.9 0.8 1.3-0.5 0-1 0.1-1.6 0.1h-719c-0.6 0-1.1 0-1.6-0.1 0.2-0.4 0.5-0.8 0.8-1.3l121-178.1c6.5-9.5 22.9-18.2 34.5-18.2z m139.3 249.3c0-7.6 1.3-14.8 3.7-21.6h120.4c1.9 5.3 3.2 11 3.6 16.9-0.1 1.6-0.1 3.1-0.1 4.7s0 3.1 0.1 4.7c-2.4 33.1-30.1 59.3-63.8 59.3-35.2-0.1-63.9-28.8-63.9-64z m-249 63.9c-35.3 0-64-28.7-64-64 0-8.5 1.7-16.6 4.7-24 4.2 1.6 9.1 2.4 14.3 2.4h105.2c1.3 3.8 2.4 7.7 3 11.7-0.3 3.2-0.5 6.5-0.5 9.9s0.2 6.6 0.5 9.9c-4.8 30.6-31.3 54.1-63.2 54.1z m588.7 330.2c0 8.3-6.7 15-15 15h-30.8l45.8-45.8v30.8z m0-73.3L698 841.2h-64.4l152.7-152.7v64.4z m0-106.8L591.1 841.2H252.8c-8.3 0-15-6.7-15-15V516.9c15.5-7.4 28.6-18.9 38-33 16.8 25.4 45.7 42.1 78.3 42.1 32.6 0 61.3-16.7 78.2-41.9 16.9 25.2 45.6 41.9 78.2 41.9 33 0 62-17.1 78.8-42.9 16.8 25.8 45.8 42.9 78.8 42.9 33.2 0 62.5-17.4 79.2-43.5 9.5 14.8 23 26.8 38.9 34.4v129.2zM826.5 496c-35.3 0-64-28.7-64-64 0-7.6 1.3-14.8 3.7-21.6h105.2c5.3 0 10.1-0.8 14.3-2.4 3 7.4 4.7 15.5 4.7 24 0.1 35.3-28.6 64-63.9 64z" fill="#46287C" /><path d="M151.8 379.1c-0.3 0.5-0.6 0.9-0.8 1.3 0.5 0 1 0.1 1.6 0.1h719c0.6 0 1.1 0 1.6-0.1-0.2-0.4-0.5-0.8-0.8-1.3L751.3 201c-6.5-9.5-22.9-18.2-34.4-18.2H307.2c-11.5 0-28 8.7-34.4 18.2l-121 178.1z m204-151.6c22.6 0 40.9 18.3 40.9 40.9s-18.3 40.9-40.9 40.9c-22.6 0-40.9-18.3-40.9-40.9s18.4-40.9 40.9-40.9z" fill="#FFBC00" /><path d="M515.2 637.1c-33.1 0-60 26.8-60 60v143.1h119.9V697c0.1-33.1-26.7-59.9-59.9-59.9z" fill="#FFFFFF" /><path d="M355.8 268.3m-40.9 0a40.9 40.9 0 1 0 81.8 0 40.9 40.9 0 1 0-81.8 0Z" fill="#FFFFFF" /></svg>