<?xml version="1.0" encoding="utf-8"?>
<!-- Uploaded to: SVG Repo, www.svgrepo.com, Generator: SVG Repo Mixer Tools -->
<svg width="800px" height="800px" viewBox="0 0 1024 1024" class="icon"  version="1.1" xmlns="http://www.w3.org/2000/svg"><path d="M701.9 354.4C687.1 246.7 607.6 164.1 512 164.1c-95.6 0-175.1 82.6-189.9 190.4h379.8z" fill="none" /><path d="M732.3 401.2c-1.3-8.9-10.3-16.8-19.3-16.8H300.9c-8.9 0-17.6 7.7-18.7 16.6l-53.6 445.9c-0.4 3.6 0.5 6.9 2.6 9.3 2.1 2.4 5.3 3.7 8.9 3.7h341.8l188.4-188.4-38-270.3z m-220.8 50.4c43.3 0 78.5 35.1 78.5 78.5s-35.1 78.5-78.5 78.5c-43.3 0-78.5-35.1-78.5-78.5s35.2-78.5 78.5-78.5z m-0.5 348.5c-43.3 0-78.5-35.1-78.5-78.5 0-43.3 35.1-78.5 78.5-78.5s78.5 35.1 78.5 78.5c-0.1 43.4-35.2 78.5-78.5 78.5zM775.5 708.7L624.3 859.9h69.6l90.1-90.1zM789.3 807l-52.9 52.9H784c3.6 0 6.6-1.3 8.6-3.6s2.8-5.5 2.3-9.1l-5.6-40.2z" fill="#FFBC00" /><path d="M824.6 843.1l-62.6-446c-2.4-17.1-14.1-31.5-29.3-38.4-6-56-27.7-107.9-62.6-148.6-42.1-49-98.2-76-158-76s-116 27-158 76c-34.2 39.9-55.8 90.5-62.3 145.2-20.3 4-36.8 21.1-39.3 42.1l-53.6 445.9c-1.5 12.1 2.2 24 10 32.8 7.8 8.8 19.2 13.8 31.4 13.8h543.9c12.2 0 23.6-5.1 31.3-13.9 7.4-8.8 10.8-20.8 9.1-32.9zM512 164.1c95.6 0 175.1 82.6 189.9 190.4H322.1c14.8-107.8 94.3-190.4 189.9-190.4zM240.1 859.9c-3.6 0-6.8-1.3-8.9-3.7-2.1-2.4-3-5.7-2.6-9.3L282.2 401c1.1-8.8 9.8-16.6 18.7-16.6H713c9 0 18.1 7.8 19.3 16.8l37.9 270.3-188.4 188.4H240.1z m384.2 0l151.2-151.2 8.6 61.1-90.1 90.1h-69.7z m168.3-3.6c-2 2.3-5.1 3.6-8.6 3.6h-47.6l52.9-52.9 5.7 40.3c0.4 3.5-0.4 6.7-2.4 9z" fill="#46287C" /><path d="M511 721.6m-78.5 0a78.5 78.5 0 1 0 157 0 78.5 78.5 0 1 0-157 0Z" fill="#EAA203" /><path d="M511.5 530.1m-78.5 0a78.5 78.5 0 1 0 157 0 78.5 78.5 0 1 0-157 0Z" fill="#FFFFFF" /></svg>