<?xml version="1.0" encoding="utf-8"?>
<!-- Uploaded to: SVG Repo, www.svgrepo.com, Generator: SVG Repo Mixer Tools -->
<svg width="800px" height="800px" viewBox="0 0 1024 1024" class="icon"  version="1.1" xmlns="http://www.w3.org/2000/svg"><path d="M314.4 849.2l4.5 2.6c9.8 5.7 22.4 2.3 28.1-7.5l11.4-19.7-52.9 14.2c1.6 4.2 4.6 7.9 8.9 10.4zM316.2 804.7l63.3-16.9 33.1-57.4-63.2 17zM370.6 710.6l63.2-16.9 33.2-57.4-63.3 16.9zM446.4 579.4L425 616.5l58.9-15.8c-6.9-3.2-13.7-6.8-20.4-10.6-5.9-3.4-11.6-7-17.1-10.7zM814.1 306.6c-15.8-59.1-53.7-108.5-106.7-139-35.3-20.4-74.4-30.8-114.1-30.8-19.9 0-39.9 2.6-59.6 7.9-59.1 15.8-108.5 53.7-139 106.7S355.9 366 371.8 425.1c15.8 59.1 53.7 108.5 106.7 139 53 30.6 114.7 38.7 173.7 22.9 59.1-15.8 108.5-53.7 139-106.7 30.6-53 38.7-114.7 22.9-173.7zM498 224.8c10.5-18.3 33.9-24.5 52.2-14 18.3 10.5 24.5 33.9 14 52.2-10.5 18.3-33.9 24.5-52.2 14-18.3-10.6-24.6-34-14-52.2z" fill="#FFBC00" /><path d="M843.1 298.8c-17.9-66.8-60.8-122.7-120.7-157.2s-129.7-43.8-196.5-25.9c-66.8 17.9-122.7 60.8-157.2 120.7S324.9 366 342.8 432.8c13.5 50.4 41.2 94.5 79.6 128L280.8 806.1c-13.9 24.2-5.6 55.1 18.5 69.1l4.5 2.6c7.9 4.6 16.6 6.8 25.2 6.8 17.5 0 34.5-9.1 43.9-25.3L515.1 613c25.1 8 51.1 12 77.4 12 22.5 0 45.1-3 67.4-8.9 66.8-17.9 122.7-60.8 157.2-120.7s43.9-129.8 26-196.6zM652.2 587c-59.1 15.8-120.8 7.7-173.7-22.9-53-30.6-90.9-80-106.7-139-15.8-59.1-7.7-120.8 22.9-173.7s80-90.9 139-106.7c19.7-5.3 39.7-7.9 59.6-7.9 39.7 0 78.8 10.4 114.1 30.8 53 30.6 90.9 80 106.7 139s7.7 120.8-22.9 173.7c-30.6 53-79.9 90.9-139 106.7zM346.9 844.2c-5.7 9.8-18.3 13.2-28.1 7.5l-4.5-2.6c-4.3-2.5-7.3-6.2-8.9-10.5l52.9-14.2-11.4 19.8z m32.6-56.4l-63.3 16.9 33.1-57.4 63.3-16.9-33.1 57.4z m54.3-94.1l-63.3 16.9 33.1-57.4 63.3-16.9-33.1 57.4z m-8.9-77.2l21.4-37.1c5.5 3.8 11.2 7.4 17.1 10.7 6.7 3.9 13.5 7.4 20.4 10.6l-58.9 15.8z" fill="#46287C" /><path d="M511.936222 277.01091a38.2 38.2 0 1 0 38.2-66.164341 38.2 38.2 0 1 0-38.2 66.164341Z" fill="#FFFFFF" /></svg>