<?xml version="1.0" encoding="utf-8"?>
<!-- Uploaded to: SVG Repo, www.svgrepo.com, Generator: SVG Repo Mixer Tools -->
<svg width="800px" height="800px" viewBox="0 0 1024 1024" class="icon"  version="1.1" xmlns="http://www.w3.org/2000/svg"><path d="M507.6 403.1h6.4c56.5-1.7 101.9-48.2 101.9-105.1 0-58-47.2-105.1-105.1-105.1S405.7 240.1 405.7 298c0 56.9 45.4 103.4 101.9 105.1zM578.8 759.9l88.4-88.5V594L501.3 759.9zM665.6 553.2C654.5 485.3 589.3 433 510.9 433c-86.1 0-156.2 62.9-156.4 140.4v186.4H459l206.6-206.6zM399.9 569c0-25.1 20.4-45.5 45.5-45.5s45.5 20.4 45.5 45.5-20.4 45.5-45.5 45.5-45.5-20.3-45.5-45.5zM621.2 759.9h46v-46zM701.6 789.9H320c-11.3 0-20.6 9.2-20.6 20.6s9.2 20.6 20.6 20.6h381.7c11.3 0 20.6-9.2 20.6-20.6s-9.3-20.6-20.7-20.6z" fill="#FFBC00" /><path d="M701.6 759.9h-4.4V573.8c0-72.2-49.2-134.1-118.5-159 40.2-23.4 67.2-67 67.2-116.8 0-74.5-60.6-135.1-135.1-135.1S375.7 223.5 375.7 298c0 49.8 27 93.3 67.2 116.8-69.3 24.9-118.5 86.8-118.5 159v186.1H320c-27.9 0-50.6 22.7-50.6 50.6s22.7 50.6 50.6 50.6h381.7c27.9 0 50.6-22.7 50.6-50.6s-22.8-50.6-50.7-50.6z m0 71.2H320c-11.3 0-20.6-9.2-20.6-20.6s9.2-20.6 20.6-20.6h381.7c11.3 0 20.6 9.2 20.6 20.6s-9.3 20.6-20.7 20.6z m-80.4-71.2l46-46v46h-46z m46-88.5l-88.5 88.5h-77.5l166-165.9v77.4zM510.8 192.9c58 0 105.1 47.2 105.1 105.1 0 56.9-45.4 103.4-101.9 105.1h-6.4c-56.5-1.7-101.9-48.2-101.9-105.1 0-57.9 47.1-105.1 105.1-105.1zM354.4 573.5c0.2-77.5 70.3-140.4 156.4-140.4 78.5 0 143.6 52.3 154.7 120.2L458.9 759.9H354.4V573.5z" fill="#46287C" /><path d="M445.5 569m-45.5 0a45.5 45.5 0 1 0 91 0 45.5 45.5 0 1 0-91 0Z" fill="#FFFFFF" /></svg>